<?xml version="1.0" encoding="utf-8"?>
<!-- Generator: Adobe Illustrator 14.0.0, SVG Export Plug-In . SVG Version: 6.00 Build 43363)  -->
<!DOCTYPE svg PUBLIC "-//W3C//DTD SVG 1.1//EN" "http://www.w3.org/Graphics/SVG/1.1/DTD/svg11.dtd">
<svg version="1.1" xmlns="http://www.w3.org/2000/svg" xmlns:xlink="http://www.w3.org/1999/xlink" x="0px" y="0px" width="260px"
	 height="180px" viewBox="130 379 260 180" enable-background="new 130 379 260 180" xml:space="preserve">
<g id="ecf90e10-6602-4afc-89a5-230685f4c8cd">
	<title>main-logo</title>
	<g>
		<path fill="#FFFFFF" d="M137.739,544.878c0.036,1.383,0.728,4.009,5.253,4.009c2.453,0,5.181-0.589,5.181-3.213
			c0-1.936-1.864-2.454-4.492-3.076l-2.659-0.62c-4.008-0.935-7.878-1.834-7.878-7.292c0-2.764,1.485-7.635,9.536-7.635
			c7.603,0,9.639,4.975,9.675,8.014h-4.977c-0.139-1.104-0.551-3.731-5.08-3.731c-1.965,0-4.316,0.726-4.316,2.971
			c0,1.937,1.587,2.354,2.625,2.593l6.05,1.487c3.383,0.827,6.493,2.211,6.493,6.665c0,7.464-7.603,8.122-9.778,8.122
			c-9.052,0-10.604-5.217-10.604-8.293"/>
		<polyline fill="#FFFFFF" points="164.032,552.513 158.85,552.513 158.85,527.708 164.032,527.708 164.032,537.797 
			173.499,527.708 180.202,527.708 170.08,537.866 180.79,552.513 174.121,552.513 166.452,541.631 164.032,544.119 		"/>
		<rect x="184.382" y="527.708" fill="#FFFFFF" width="5.183" height="24.805"/>
		<path fill="#FFFFFF" d="M228.363,552.513h-5.838l-1.694-2.106c-1.452,1.452-3.35,2.765-7.081,2.765
			c-4.735,0-7.739-3.352-7.739-7.051c0-2.382,0.655-4.732,4.768-7.218l0.519-0.313c-1.039-1.175-2.246-3.04-2.246-5.182
			c0-3.384,2.728-5.699,6.599-5.699c2.728,0,6.081,1.763,6.081,5.736c0,3.488-3.111,5.318-4.112,5.904l3.524,4.355
			c0.624-0.969,1.104-2.177,1.279-4.077h4.28c-0.307,3.35-1.173,5.286-2.829,7.463 M213.782,541.664
			c-2.037,1.484-2.934,2.177-2.934,4.147c0,0.966,0.758,3.282,3.662,3.282c1.589,0,3.004-0.968,3.831-1.728L213.782,541.664z
			 M215.474,531.369c-1.07,0-2,0.689-2,2.004c0,0.829,0.622,1.831,1.795,3.106c1.314-0.824,2.285-1.794,2.285-3.072
			C217.553,532.023,216.65,531.369,215.474,531.369"/>
		<path fill="#FFFFFF" d="M247.781,544.878c0.036,1.383,0.726,4.009,5.252,4.009c2.453,0,5.183-0.589,5.183-3.213
			c0-1.936-1.867-2.454-4.491-3.076l-2.661-0.62c-4.011-0.935-7.879-1.834-7.879-7.292c0-2.764,1.485-7.635,9.537-7.635
			c7.601,0,9.638,4.975,9.674,8.014h-4.977c-0.14-1.104-0.552-3.731-5.081-3.731c-1.97,0-4.317,0.726-4.317,2.971
			c0,1.937,1.591,2.354,2.625,2.593l6.047,1.487c3.386,0.827,6.496,2.211,6.496,6.665c0,7.464-7.602,8.122-9.779,8.122
			c-9.052,0-10.606-5.217-10.606-8.293"/>
		<path fill="#FFFFFF" d="M273.691,552.513h-5.183v-24.805h11.331c4.805,0,7.706,3.074,7.706,7.947c0,2.245-1.244,7.912-7.907,7.912
			h-5.947 M278.5,539.282c3.868,0,3.868-2.766,3.868-3.872c0-2.414-1.351-3.418-4.562-3.418h-4.114v7.29H278.5z"/>
		<path fill="#FFFFFF" d="M303.753,527.051c3.278,0,11.919,1.417,11.919,13.059c0,11.643-8.641,13.062-11.919,13.062
			c-3.283,0-11.921-1.419-11.921-13.062C291.832,528.468,300.47,527.051,303.753,527.051 M303.753,548.785
			c2.797,0,6.736-1.731,6.736-8.676s-3.938-8.669-6.736-8.669c-2.798,0-6.739,1.725-6.739,8.669S300.955,548.785,303.753,548.785"/>
		<path fill="#FFFFFF" d="M321.203,527.708h12.539c6.602,0,7.809,4.871,7.809,7.012c0,2.729-1.383,5.08-3.833,5.907
			c2.038,0.9,3.142,1.662,3.142,6.29c0,3.63,0,4.525,1.106,4.941v0.654h-5.735c-0.346-1.176-0.554-2.451-0.554-5.008
			c0-3.386-0.207-4.701-4.044-4.701h-5.354v9.709h-5.075 M332.362,538.623c2.695,0,4.004-0.932,4.004-3.385
			c0-1.312-0.585-3.246-3.625-3.246h-6.463v6.631H332.362z"/>
		<polyline fill="#FFFFFF" points="357.378,552.513 352.197,552.513 352.197,532.095 344.699,532.095 344.699,527.708 
			364.876,527.708 364.876,532.095 357.378,532.095 		"/>
		<path fill="#FFFFFF" d="M373.031,544.878c0.037,1.383,0.725,4.009,5.25,4.009c2.456,0,5.184-0.589,5.184-3.213
			c0-1.936-1.867-2.454-4.492-3.076l-2.657-0.62c-4.006-0.935-7.877-1.834-7.877-7.292c0-2.764,1.482-7.635,9.534-7.635
			c7.603,0,9.638,4.975,9.675,8.014h-4.977c-0.136-1.104-0.552-3.731-5.077-3.731c-1.971,0-4.317,0.726-4.317,2.971
			c0,1.937,1.586,2.354,2.623,2.593l6.044,1.487c3.389,0.827,6.498,2.211,6.498,6.665c0,7.464-7.602,8.122-9.775,8.122
			c-9.054,0-10.606-5.217-10.606-8.293"/>
	</g>
	<g>
		<rect x="367.72" y="387.976" fill="#FFFFFF" width="18.493" height="107.988"/>
		<path fill="#FFFFFF" d="M219.197,489.655v34.379h18.494V416.21h-18.494v51.521c0,4.787-1.981,9.909-9.577,9.909
			c-7.594,0-9.576-5.617-9.576-9.747V416.21h-18.491v58.289c0,19.265,18.822,21.632,20.802,21.632
			C205.114,496.131,214.65,495.611,219.197,489.655"/>
		<path fill="#FFFFFF" d="M140.559,467.561v-68.689l18.491-10.898v76.12c0,12.441,11.338,12.383,18.163,12.383V495.8
			C170.941,495.8,140.559,495.688,140.559,467.561"/>
		<rect x="134.532" y="416.182" fill="#FFFFFF" width="40.95" height="18.496"/>
		<path fill="#FFFFFF" d="M322.929,432.254c12.082,0.2,21.814,10.055,21.814,22.179c0,12.255-9.935,22.188-22.184,22.188
			c-12.254,0-22.187-9.933-22.187-22.188c0-12.179,9.822-22.068,21.979-22.179l-0.206-19.37
			c-22.734,0.089-41.138,18.548-41.138,41.305c0,22.811,18.491,41.305,41.301,41.305c22.811,0,41.307-18.494,41.307-41.305
			c0-22.701-18.313-41.305-40.976-41.305h-0.827l0.25,19.384"/>
		<path fill="#FFFFFF" d="M262.09,423.23c4.566-3.48,10.858-8.836,23.941-8.836v18.988c-4.848,0-15.921,1.096-23.984,9.659
			l0.041,52.921h-18.493v-79.588h18.493"/>
	</g>
</g>
<g id="Layer_2" display="none">
</g>
</svg>
